Coordinates
version=1
nRows=23
nColumns=23
inDegrees=yes

Units are S.I. units (second, meters, Newtons, ...)
If the header above contains a line with 'inDegrees', this indicates whether rotational values are in degrees (yes) or radians (no).

endheader
time	pelvis_tilt	pelvis_list	pelvis_rotation	pelvis_tx	pelvis_ty	pelvis_tz	hip_flexion_r	hip_adduction_r	hip_rotation_r	knee_angle_r	knee_angle_r_beta	ankle_angle_r	subtalar_angle_r	mtp_angle_r	hip_flexion_l	hip_adduction_l	hip_rotation_l	knee_angle_l	knee_angle_l_beta	ankle_angle_l	subtalar_angle_l	mtp_angle_l
     15.00000000	     -5.13758826	     -5.19358755	     -8.59528445	      2.27898804	      0.99975959	      0.99556312	     28.34045823	      8.00115203	     -6.40451929	     47.73260670	      0.83309115	     21.19277300	    -10.42069166	      0.00000000	     17.85060008	     -7.93294533	     -2.31753747	    123.19274339	      2.15011899	     -2.94387503	    -13.68666267	      0.00000000
     15.00666667	     -5.29422022	     -5.19366502	     -8.18319581	      2.27754830	      0.99890550	      0.99492576	     26.83191125	      7.67046508	     -6.35767135	     48.13769440	      0.84016126	     23.20860253	     -9.79733917	      0.00000000	     20.70660430	     -7.86376438	     -1.07103947	    124.51096801	      2.17312635	     -2.26585451	    -12.23742296	      0.00000000
     15.01333333	     -5.35462077	     -5.10359023	     -7.56115286	      2.27665115	      0.99906619	      0.99416470	     24.94164634	      7.12600226	     -6.57834590	     48.05974241	      0.83880074	     24.99177840	     -8.98544368	      0.00000000	     23.46772449	     -7.52399705	      0.20936341	    125.36634167	      2.18805543	     -1.67006045	    -11.01868040	      0.00000000
     15.02000000	     -5.11818727	     -4.96160926	     -6.71085156	      2.27658812	      1.00052455	      0.99318678	     22.42992690	      6.34778069	     -7.22151045	     47.49519400	      0.82894751	     26.63924015	     -7.53283525	      0.00000000	     25.80647423	     -6.94521625	      1.44335004	    125.70823688	      2.19402263	     -1.15455084	    -10.06061294	      0.00000000
     15.02666667	     -4.58007590	     -4.87400463	     -5.61389663	      2.27728674	      1.00333587	      0.99210371	     19.25298780	      5.62667613	     -8.08441904	     46.27998356	      0.80773809	     27.55993255	     -6.44497802	      0.00000000	     27.68954466	     -6.24422902	      2.71589167	    125.58391038	      2.19185272	     -0.60821608	     -9.26086274	      0.00000000
     15.03333333	     -3.98624782	     -4.66349503	     -4.41165270	      2.27858162	      1.00697314	      0.99103081	     15.80098862	      4.85553496	     -9.11488872	     44.63348199	      0.77900122	     28.01074409	     -5.35862768	      0.00000000	     29.35788931	     -5.33373548	      3.83237557	    125.03226681	      2.18222473	     -0.07414916	     -8.64490585	      0.00000000
     15.04000000	     -3.44542239	     -4.21905377	     -3.17575685	      2.28030999	      1.01117674	      0.98993077	     12.28500047	      3.94035128	    -10.28651791	     42.71161027	      0.74545823	     28.06877268	     -4.14113821	      0.00000000	     30.91673301	     -4.14335838	      4.66644631	    124.09686314	      2.16589885	      0.41828491	     -8.29885853	      0.00000000
     15.04666667	     -3.59855618	     -3.38732419	     -2.16663563	      2.28189315	      1.01494439	      0.98920596	      9.60132227	      2.88582835	    -11.07843769	     40.81870235	      0.71242075	     27.53989059	     -3.73053334	      0.00000000	     33.11725491	     -2.68248558	      4.99003549	    122.88934362	      2.14482366	      0.88075333	     -8.08361184	      0.00000000
     15.05333333	     -2.54675367	     -2.71522824	     -0.74720700	      2.28488093	      1.02093992	      0.98775307	      5.21283460	      1.81639580	    -13.06243796	     38.29436689	      0.66836279	     26.85679593	     -1.40537496	      0.00000000	     33.62908793	     -1.17258525	      5.43096276	    121.19469986	      2.11524655	      1.29102497	     -8.37979318	      0.00000000
     15.06000000	     -2.23886491	     -1.80176838	      0.34836089	      2.28759974	      1.02638263	      0.98679455	      1.76493869	      0.81361118	    -14.52242093	     35.82908808	      0.62533555	     25.11874384	     -0.29646028	      0.00000000	     34.82275618	      0.35854085	      5.40105412	    119.30622016	      2.08228636	      1.73277527	     -8.59605813	      0.00000000
     15.06666667	     -2.59168434	     -0.83165557	      1.22367042	      2.29020253	      1.03136172	      0.98599916	     -0.82968999	     -0.13601196	    -15.81367759	     33.47168137	      0.58419105	     22.40859963	      0.22644807	      0.00000000	     36.60887349	      1.80781541	      5.04992802	    117.22863676	      2.04602569	      2.06599765	     -8.95678424	      0.00000000
     15.07333333	     -1.99313546	     -0.00931415	      2.22956860	      2.29365084	      1.03795253	      0.98510715	     -4.68116482	     -0.72581918	    -17.40293054	     30.53622406	      0.53295765	     18.93925473	      1.14965717	      0.00000000	     37.03710285	      3.08972698	      4.81250301	    114.83208620	      2.00419799	      2.36094535	     -9.59843555	      0.00000000
     15.08000000	     -1.98343223	      0.76491894	      2.96572340	      2.29689975	      1.04393599	      0.98447712	     -7.66331380	     -1.20167646	    -18.72338456	     27.82343085	      0.48561048	     14.68089220	      1.44289828	      0.00000000	     38.00472657	      4.12512589	      4.31561462	    112.31705458	      1.96030241	      2.65769676	    -10.17179064	      0.00000000
     15.08666667	     -2.23578340	      1.46073070	      3.62707850	      2.30017928	      1.04967639	      0.98375482	    -10.18758201	     -1.60466436	    -20.14903000	     25.29741955	      0.44152326	      9.89622235	      1.67989957	      0.00000000	     39.12512638	      5.05421661	      3.76365230	    109.65551506	      1.91384978	      2.80981678	    -10.96305112	      0.00000000
     15.09333333	     -2.41770636	      1.99499839	      4.09676444	      2.30345488	      1.05557013	      0.98327758	    -12.60921346	     -1.79116032	    -21.34347846	     22.84675384	      0.39875108	      4.65401763	      1.62059625	      0.00000000	     40.01810957	      5.63343569	      3.12022889	    106.84898704	      1.86486663	      2.96533507	    -11.69476807	      0.00000000
     15.10000000	     -2.74168558	      2.34809368	      4.42954931	      2.30664750	      1.06123700	      0.98297159	    -14.65304384	     -1.79216598	    -22.27252756	     20.60629308	      0.35964766	     -0.77184646	      1.10331687	      0.00000000	     40.95637933	      5.89881605	      2.43381790	    103.92618144	      1.81385405	      3.13270220	    -12.33948583	      0.00000000
     15.10666667	     -3.25247468	      2.56386005	      4.73086556	      2.30969244	      1.06648592	      0.98258819	    -16.22241738	     -1.76347447	    -23.35008141	     18.81353868	      0.32835819	     -6.01381217	      0.51021473	      0.00000000	     41.99872281	      6.03246715	      1.79789059	    100.90600426	      1.76114201	      3.30295135	    -12.95977848	      0.00000000
     15.11333333	     -4.05638901	      2.72681191	      5.07033443	      2.31247811	      1.07106102	      0.98198022	    -17.12233293	     -1.93434180	    -25.06107239	     17.81176511	      0.31087395	    -10.57506586	      0.45766978	      0.00000000	     43.27446697	      6.17382325	      1.19536378	     97.77914246	      1.70656798	      3.47734708	    -13.46004528	      0.00000000
     15.12000000	     -4.49723071	      2.65249524	      5.26018656	      2.31512887	      1.07585868	      0.98170131	    -18.27309673	     -1.70981537	    -25.92708098	     16.80696630	      0.29333690	    -14.86732333	     -0.64398110	      0.00000000	     44.01881137	      5.95940875	      0.67321195	     94.51763140	      1.64964387	      3.67343620	    -14.00099416	      0.00000000
     15.12666667	     -5.36635246	      2.53605398	      5.45062249	      2.31730886	      1.07965285	      0.98126432	    -18.53425827	     -1.81557604	    -27.46427730	     16.88616584	      0.29471919	    -17.99063924	     -0.99524006	      0.00000000	     45.16954062	      5.72861228	      0.11492200	     91.16675024	      1.59115996	      4.01543998	    -14.07135748	      0.00000000
     15.13333333	     -5.93830445	      2.47977556	      5.85429496	      2.31931020	      1.08331100	      0.98044228	    -19.03857243	     -1.90319580	    -29.05013594	     17.22458200	      0.30062567	    -20.29709236	     -2.07479893	      0.00000000	     45.84823780	      5.81150663	     -0.19758343	     87.62227397	      1.52929718	      4.25816673	    -14.31269713	      0.00000000
     15.14000000	     -6.63351211	      2.38500669	      6.20376373	      2.32095328	      1.08634744	      0.97969345	    -19.18258026	     -2.06319218	    -30.40575291	     18.11194573	      0.31611309	    -21.68049451	     -3.16010596	      0.00000000	     46.54876968	      5.82152342	     -0.54891008	     83.93232215	      1.46489537	      4.60193231	    -14.08819750	      0.00000000
     15.14666667	     -7.23406642	      2.33002438	      6.64908778	      2.32221858	      1.08888039	      0.97873967	    -19.28050452	     -2.30228190	    -31.70048018	     19.45942859	      0.33963110	    -22.12153323	     -4.51456838	      0.00000000	     47.02575718	      5.98962998	     -0.81106477	     80.06566486	      1.39740947	      4.91300402	    -13.71167787	      0.00000000
